<svg xmlns="http://www.w3.org/2000/svg" viewBox="0 0 30 30"><title>brush</title><path d="M20.85,12.94c-0.09-2.4-3.31-7.47-5.28-10.37a1.27,1.27,0,0,0-2.24.32c-2,5.71-4.85,6.59-5.07,9.89a6.37,6.37,0,0,0,4.94,6.5A6.26,6.26,0,0,0,20.85,12.94Z" fill="none" stroke="#010101" stroke-miterlimit="10" stroke-width="2"/><path d="M12.18,3.89a3.89,3.89,0,0,0,.3,2.68c0.33,0.61.93,1.05,1.22,1.65L13.36,7c0-.5,1.09-1,0.22-0.71a4.3,4.3,0,0,0-.94.58,18.07,18.07,0,0,0-2,1.59A7.93,7.93,0,0,0,8,12.08c-0.81,3.12,4,4.44,4.82,1.33a5.22,5.22,0,0,1,1.85-1.95,23.56,23.56,0,0,0,2.69-1.87,3.36,3.36,0,0,0,.92-3c-0.18-1-1.21-1.77-1.37-2.36V5.59L17,5.22c0.53-3.15-4.29-4.5-4.82-1.33h0Z" fill="#010101"/><rect x="11.08" y="19.43" width="7.08" height="8.15" fill="none" stroke="#010101" stroke-miterlimit="10" stroke-width="2"/></svg>