<svg xmlns="http://www.w3.org/2000/svg" viewBox="0 0 89.43 111.71"><title>rubbish-icon</title><ellipse cx="44.72" cy="102.35" rx="28.29" ry="8.87" fill="none" stroke="#939598" stroke-miterlimit="10"/><path d="M91.36,38l-0.58,2.25L75.43,99.63c0,4.9-12.66,8.87-28.28,8.87s-28.29-4-28.29-8.87L3.51,40.29,2.93,38c0-7.66,19.79-13.86,44.22-13.86S91.36,30.38,91.36,38Z" transform="translate(-2.43 -1.69)" fill="#fff" stroke="#939598" stroke-miterlimit="10"/><ellipse cx="44.5" cy="36.36" rx="41.85" ry="10.92" fill="none" stroke="#939598" stroke-miterlimit="10"/><path d="M88.78,24.38l-3.57,9.25L81.06,44.37C73.47,47.15,61,49,46.93,49c-12.7,0-24.07-1.47-31.74-3.79l0.26-.69,5.82-15.07L31.74,2.33Z" transform="translate(-2.43 -1.69)" fill="#f1f2f2" stroke="#939598" stroke-miterlimit="10"/></svg>