<svg xmlns="http://www.w3.org/2000/svg" viewBox="0 0 487.29 78.48"><title>sisyphus logo-small</title><rect x="1" y="1" width="485.29" height="76.48" fill="none" stroke="#0b3039" stroke-miterlimit="10" stroke-width="2"/><path d="M40.31,50.31a5.3,5.3,0,0,1-4-1.46,3.51,3.51,0,0,1-1-2.65,4.38,4.38,0,0,1,1.51-3.15,4.83,4.83,0,0,1,3.38-1.29,6.5,6.5,0,0,1,3.1.73A3.85,3.85,0,0,1,45.37,45a0.64,0.64,0,0,1-.47.79,0.59,0.59,0,0,1-.5-0.07,0.61,0.61,0,0,1-.3-0.4,2.64,2.64,0,0,0-1.54-1.74,5.32,5.32,0,0,0-2.37-.51,3.59,3.59,0,0,0-2.48.92,3.15,3.15,0,0,0-1.1,2.27,2.21,2.21,0,0,0,.66,1.68,4.09,4.09,0,0,0,3,1.06,0.66,0.66,0,0,1,.65.67,0.66,0.66,0,0,1-.2.45,0.65,0.65,0,0,1-.46.19h0Zm-2.9,6.52a3.88,3.88,0,0,1-2.07-2.51,0.66,0.66,0,0,1,.07-0.5,0.64,0.64,0,0,1,.41-0.3,0.66,0.66,0,0,1,.5.07,0.64,0.64,0,0,1,.3.4,2.68,2.68,0,0,0,1.54,1.75,5.41,5.41,0,0,0,2.37.5A3.59,3.59,0,0,0,43,55.32a3.13,3.13,0,0,0,1.1-2.25,2.22,2.22,0,0,0-.66-1.69,4.09,4.09,0,0,0-3-1.06,0.61,0.61,0,0,1-.46-0.2,0.65,0.65,0,0,1-.19-0.46,0.65,0.65,0,0,1,.21-0.46A0.63,0.63,0,0,1,40.4,49a5.33,5.33,0,0,1,4,1.47,3.44,3.44,0,0,1,1,2.64,4.34,4.34,0,0,1-1.5,3.15,4.83,4.83,0,0,1-3.38,1.29A6.58,6.58,0,0,1,37.41,56.83Z" transform="translate(-5.85 -9.17)" fill="#0b3039"/><path d="M52.93,56.89a0.66,0.66,0,0,1-1.32,0V42.48a0.66,0.66,0,0,1,1.32,0V56.89Z" transform="translate(-5.85 -9.17)" fill="#0b3039"/><path d="M64.25,50.31a5.3,5.3,0,0,1-4-1.46,3.51,3.51,0,0,1-1-2.65,4.38,4.38,0,0,1,1.51-3.15,4.83,4.83,0,0,1,3.38-1.29,6.5,6.5,0,0,1,3.1.73A3.85,3.85,0,0,1,69.31,45a0.64,0.64,0,0,1-.47.79,0.59,0.59,0,0,1-.5-0.07,0.61,0.61,0,0,1-.3-0.4,2.64,2.64,0,0,0-1.54-1.74,5.32,5.32,0,0,0-2.37-.51,3.59,3.59,0,0,0-2.48.92,3.15,3.15,0,0,0-1.1,2.27,2.21,2.21,0,0,0,.66,1.68,4.09,4.09,0,0,0,3,1.06,0.66,0.66,0,0,1,.65.67,0.66,0.66,0,0,1-.2.45,0.65,0.65,0,0,1-.46.19h0Zm-2.9,6.52a3.88,3.88,0,0,1-2.07-2.51,0.66,0.66,0,0,1,.07-0.5,0.64,0.64,0,0,1,.41-0.3,0.66,0.66,0,0,1,.5.07,0.64,0.64,0,0,1,.3.4,2.68,2.68,0,0,0,1.54,1.75,5.41,5.41,0,0,0,2.37.5,3.59,3.59,0,0,0,2.48-.92A3.13,3.13,0,0,0,68,53.06a2.22,2.22,0,0,0-.66-1.69,4.09,4.09,0,0,0-3-1.06,0.61,0.61,0,0,1-.46-0.2,0.65,0.65,0,0,1-.19-0.46,0.65,0.65,0,0,1,.21-0.46A0.63,0.63,0,0,1,64.34,49a5.33,5.33,0,0,1,4,1.47,3.44,3.44,0,0,1,1,2.64,4.34,4.34,0,0,1-1.5,3.15,4.83,4.83,0,0,1-3.38,1.29A6.58,6.58,0,0,1,61.35,56.83Z" transform="translate(-5.85 -9.17)" fill="#0b3039"/><path d="M86.58,41.91a0.65,0.65,0,0,1,.25.44,0.67,0.67,0,0,1-.14.48l-5.42,6.79v7.27a0.63,0.63,0,0,1-.19.46,0.65,0.65,0,0,1-.47.2,0.63,0.63,0,0,1-.46-0.2A0.63,0.63,0,0,1,80,56.89V49.62l-5.42-6.79a0.67,0.67,0,0,1-.14-0.48,0.65,0.65,0,0,1,.25-0.44,0.61,0.61,0,0,1,.47-0.13,0.62,0.62,0,0,1,.45.24l5,6.31,5-6.31a0.61,0.61,0,0,1,.44-0.24A0.63,0.63,0,0,1,86.58,41.91Z" transform="translate(-5.85 -9.17)" fill="#0b3039"/><path d="M98.14,41.76A4.67,4.67,0,0,1,101.43,43a4.05,4.05,0,0,1,.08,6,4.69,4.69,0,0,1-3.1,1.33H93.78v6.56a0.66,0.66,0,0,1-1.32,0V42.42a0.68,0.68,0,0,1,.66-0.66h5ZM98.22,49a3.42,3.42,0,0,0,2.29-.89,2.74,2.74,0,0,0,0-4.18,3.43,3.43,0,0,0-2.35-.87H93.78V49h4.44Z" transform="translate(-5.85 -9.17)" fill="#0b3039"/><path d="M119.86,57.55a0.65,0.65,0,0,1-.47-0.2,0.62,0.62,0,0,1-.19-0.46V50.33h-9v6.56a0.62,0.62,0,0,1-.19.46,0.65,0.65,0,0,1-.47.2,0.68,0.68,0,0,1-.66-0.66V42.45a0.68,0.68,0,0,1,.66-0.66,0.64,0.64,0,0,1,.47.2,0.63,0.63,0,0,1,.19.46V49h9V42.45a0.63,0.63,0,0,1,.19-0.46,0.64,0.64,0,0,1,.47-0.2,0.68,0.68,0,0,1,.66.66V56.89A0.68,0.68,0,0,1,119.86,57.55Z" transform="translate(-5.85 -9.17)" fill="#0b3039"/><path d="M137.3,41.81a0.65,0.65,0,0,1,.46.19,0.63,0.63,0,0,1,.19.46v9.69a5.4,5.4,0,0,1-10.8,0V42.46a0.64,0.64,0,0,1,.65-0.65,0.62,0.62,0,0,1,.45.19,0.63,0.63,0,0,1,.19.46v9.69a4.11,4.11,0,0,0,8.23,0V42.46a0.63,0.63,0,0,1,.19-0.46A0.61,0.61,0,0,1,137.3,41.81Z" transform="translate(-5.85 -9.17)" fill="#0b3039"/><path d="M149.06,50.31a5.3,5.3,0,0,1-4-1.46,3.51,3.51,0,0,1-1-2.65,4.38,4.38,0,0,1,1.51-3.15A4.83,4.83,0,0,1,149,41.76a6.5,6.5,0,0,1,3.1.73,3.85,3.85,0,0,1,2.07,2.5,0.64,0.64,0,0,1-.47.79,0.59,0.59,0,0,1-.5-0.07,0.61,0.61,0,0,1-.3-0.4,2.64,2.64,0,0,0-1.54-1.74,5.32,5.32,0,0,0-2.37-.51,3.59,3.59,0,0,0-2.48.92,3.15,3.15,0,0,0-1.1,2.27,2.21,2.21,0,0,0,.66,1.68,4.09,4.09,0,0,0,3,1.06,0.66,0.66,0,0,1,.65.67,0.66,0.66,0,0,1-.2.45,0.65,0.65,0,0,1-.46.19h0Zm-2.9,6.52a3.88,3.88,0,0,1-2.07-2.51,0.66,0.66,0,0,1,.07-0.5,0.64,0.64,0,0,1,.41-0.3,0.66,0.66,0,0,1,.5.07,0.64,0.64,0,0,1,.3.4,2.68,2.68,0,0,0,1.54,1.75,5.41,5.41,0,0,0,2.37.5,3.59,3.59,0,0,0,2.48-.92,3.13,3.13,0,0,0,1.1-2.25,2.22,2.22,0,0,0-.66-1.69,4.09,4.09,0,0,0-3-1.06,0.61,0.61,0,0,1-.46-0.2,0.65,0.65,0,0,1-.19-0.46,0.65,0.65,0,0,1,.21-0.46,0.63,0.63,0,0,1,.46-0.19,5.33,5.33,0,0,1,4,1.47,3.44,3.44,0,0,1,1,2.64,4.34,4.34,0,0,1-1.5,3.15,4.83,4.83,0,0,1-3.38,1.29A6.58,6.58,0,0,1,146.16,56.83Z" transform="translate(-5.85 -9.17)" fill="#0b3039"/><path d="M170.62,56.89a0.67,0.67,0,0,1-.19.47,0.65,0.65,0,0,1-.46.19,0.64,0.64,0,0,1-.66-0.66V42.47a0.59,0.59,0,0,1,.48-0.63,0.6,0.6,0,0,1,.74.3L177.08,53l6.56-10.83a0.6,0.6,0,0,1,.74-0.3,0.59,0.59,0,0,1,.48.63V56.89a0.65,0.65,0,0,1-.2.47,0.63,0.63,0,0,1-.46.19,0.65,0.65,0,0,1-.46-0.19,0.67,0.67,0,0,1-.19-0.47V44.82l-5.91,9.76h0l0,0.06,0,0,0,0-0.06,0h-0.05l-0.07,0-0.05,0H176.9l-0.06,0-0.07,0h-0.06l-0.05,0,0,0,0,0,0-.06h0l-5.91-9.76V56.89Z" transform="translate(-5.85 -9.17)" fill="#0b3039"/><path d="M193.06,56.89a0.66,0.66,0,0,1-1.32,0V42.48a0.66,0.66,0,0,1,1.32,0V56.89Z" transform="translate(-5.85 -9.17)" fill="#0b3039"/><path d="M211.35,57.32h0l-10.06-13V56.89a0.66,0.66,0,0,1-1.32,0V42.4a0.66,0.66,0,0,1,1.18-.41L211.2,55V42.4a0.66,0.66,0,0,1,.65-0.66,0.65,0.65,0,0,1,.47.2,0.63,0.63,0,0,1,.19.46V56.93a0.21,0.21,0,0,1,0,.07,0.19,0.19,0,0,1,0,.05l0,0.07,0,0.05a0.13,0.13,0,0,1,0,.05l0,0.06,0,0.05,0,0,0,0,0,0,0,0-0.07,0,0,0-0.08,0h-0.34l-0.09,0,0,0-0.08,0,0,0,0,0Z" transform="translate(-5.85 -9.17)" fill="#0b3039"/><path d="M220.71,56.89a0.66,0.66,0,0,1-1.32,0V42.48a0.66,0.66,0,0,1,1.32,0V56.89Z" transform="translate(-5.85 -9.17)" fill="#0b3039"/><path d="M239,57.32h0l-10.06-13V56.89a0.66,0.66,0,0,1-1.32,0V42.4a0.66,0.66,0,0,1,1.18-.41l10.08,13V42.4a0.66,0.66,0,0,1,.65-0.66,0.65,0.65,0,0,1,.47.2,0.63,0.63,0,0,1,.19.46V56.93a0.21,0.21,0,0,1,0,.07,0.19,0.19,0,0,1,0,.05l0,0.07,0,0.05a0.13,0.13,0,0,1,0,.05l0,0.06,0,0.05,0,0,0,0,0,0,0,0-0.07,0,0,0-0.08,0h-0.34l-0.09,0,0,0-0.08,0,0,0,0,0Z" transform="translate(-5.85 -9.17)" fill="#0b3039"/><path d="M248.28,55.23a7.89,7.89,0,0,1,5.58-13.47,7.69,7.69,0,0,1,4.81,1.63,0.65,0.65,0,0,1,.25.44,0.61,0.61,0,0,1-.13.5,0.62,0.62,0,0,1-.44.25,0.65,0.65,0,0,1-.48-0.13,6.39,6.39,0,0,0-4-1.36,6.57,6.57,0,0,0-4.64,11.22,6.57,6.57,0,0,0,9.06.22,0.66,0.66,0,0,1,.48-0.18,0.63,0.63,0,0,1,.46.22,0.68,0.68,0,0,1,0,.94,7.67,7.67,0,0,1-5.32,2.06A7.58,7.58,0,0,1,248.28,55.23Zm10.11,2.12a0.63,0.63,0,0,1-.19-0.46v-7h-5.52a0.66,0.66,0,0,1-.47-0.19,0.65,0.65,0,0,1-.2-0.47,0.61,0.61,0,0,1,.2-0.46,0.64,0.64,0,0,1,.47-0.2h6.18a0.64,0.64,0,0,1,.47.2,0.63,0.63,0,0,1,.19.46v7.63a0.62,0.62,0,0,1-.19.46A0.66,0.66,0,0,1,258.38,57.35Z" transform="translate(-5.85 -9.17)" fill="#0b3039"/><path d="M281.68,57.55a7.89,7.89,0,0,1-5.58-13.49,7.58,7.58,0,0,1,5.58-2.32,7.68,7.68,0,0,1,4.82,1.64,0.66,0.66,0,0,1-.32,1.18,0.57,0.57,0,0,1-.48-0.13,6.44,6.44,0,0,0-4-1.35,6.57,6.57,0,1,0,4.43,11.44,0.66,0.66,0,1,1,.89,1A7.64,7.64,0,0,1,281.68,57.55Z" transform="translate(-5.85 -9.17)" fill="#0b3039"/><path d="M299.72,57.55a7.89,7.89,0,0,1-5.58-13.46A7.89,7.89,0,0,1,305.3,55.24,7.6,7.6,0,0,1,299.72,57.55Zm0-14.46a6.57,6.57,0,0,0-4.64,11.22A6.56,6.56,0,1,0,304.36,45,6.31,6.31,0,0,0,299.72,43.08Z" transform="translate(-5.85 -9.17)" fill="#0b3039"/><path d="M319.75,41.8A4.64,4.64,0,0,1,323,43a4,4,0,0,1,.24,5.75,4.51,4.51,0,0,1-2.72,1.43l3.13,6.39a0.61,0.61,0,0,1,0,.49,0.64,0.64,0,0,1-.33.37,0.63,0.63,0,0,1-.29.07,0.6,0.6,0,0,1-.58-0.36l-3.4-6.9h-3.67v6.5a0.63,0.63,0,0,1-.2.46,0.63,0.63,0,0,1-.46.19,0.64,0.64,0,0,1-.65-0.65V42.45a0.63,0.63,0,0,1,.19-0.46,0.65,0.65,0,0,1,.46-0.19h5Zm3.3,4.25a2.68,2.68,0,0,0-1-2.08,3.37,3.37,0,0,0-2.33-.87h-4.32V49h4.4a3.33,3.33,0,0,0,2.28-.88A2.68,2.68,0,0,0,323.05,46Z" transform="translate(-5.85 -9.17)" fill="#0b3039"/><path d="M336.06,41.76A4.66,4.66,0,0,1,339.34,43a4.05,4.05,0,0,1,.08,6,4.69,4.69,0,0,1-3.1,1.33H331.7v6.56a0.66,0.66,0,0,1-1.32,0V42.42a0.68,0.68,0,0,1,.66-0.66h5ZM336.14,49a3.42,3.42,0,0,0,2.29-.89,2.74,2.74,0,0,0,0-4.18,3.42,3.42,0,0,0-2.35-.87H331.7V49h4.44Z" transform="translate(-5.85 -9.17)" fill="#0b3039"/><path d="M353.54,57.55A7.89,7.89,0,0,1,348,44.08a7.89,7.89,0,0,1,11.15,11.15A7.6,7.6,0,0,1,353.54,57.55Zm0-14.46a6.57,6.57,0,0,0-4.64,11.22A6.56,6.56,0,1,0,358.18,45,6.31,6.31,0,0,0,353.54,43.08Z" transform="translate(-5.85 -9.17)" fill="#0b3039"/><path d="M373.57,41.8A4.64,4.64,0,0,1,376.83,43a4,4,0,0,1,.24,5.75,4.51,4.51,0,0,1-2.72,1.43l3.13,6.39a0.61,0.61,0,0,1,0,.49,0.64,0.64,0,0,1-.33.37,0.63,0.63,0,0,1-.29.07,0.6,0.6,0,0,1-.58-0.36l-3.4-6.9h-3.67v6.5a0.63,0.63,0,0,1-.2.46,0.63,0.63,0,0,1-.46.19,0.64,0.64,0,0,1-.65-0.65V42.45a0.63,0.63,0,0,1,.19-0.46,0.65,0.65,0,0,1,.46-0.19h5Zm3.3,4.25a2.68,2.68,0,0,0-1-2.08,3.37,3.37,0,0,0-2.33-.87h-4.32V49h4.4a3.33,3.33,0,0,0,2.28-.88A2.68,2.68,0,0,0,376.87,46Z" transform="translate(-5.85 -9.17)" fill="#0b3039"/><path d="M383.68,57.49a0.6,0.6,0,0,1-.35-0.35,0.61,0.61,0,0,1,0-.51L384.86,53h0l4.46-10.75,0.05-.12,0,0,0-.06,0.06,0,0,0a0.58,0.58,0,0,1,.23-0.1H390a0.58,0.58,0,0,1,.24.1l0,0,0.06,0,0,0.06,0,0,0.05,0.12L395,52.94h0l1.53,3.68a0.61,0.61,0,0,1,0,.51,0.6,0.6,0,0,1-.35.35,0.61,0.61,0,0,1-.25.05,0.6,0.6,0,0,1-.6-0.41l-1.36-3.28h-8l-1.36,3.28a0.6,0.6,0,0,1-.6.41H383.8Zm9.71-5-3.48-8.38-3.48,8.38h7Z" transform="translate(-5.85 -9.17)" fill="#0b3039"/><path d="M405.7,43.08h-4.34a0.67,0.67,0,0,1-.47-0.19,0.67,0.67,0,0,1,0-.92,0.65,0.65,0,0,1,.47-0.2h10a0.65,0.65,0,0,1,.46,1.12,0.63,0.63,0,0,1-.46.19H407v13.8a0.64,0.64,0,0,1-.66.66,0.65,0.65,0,0,1-.46-0.19,0.67,0.67,0,0,1-.19-0.47V43.08Z" transform="translate(-5.85 -9.17)" fill="#0b3039"/><path d="M418.62,56.89a0.66,0.66,0,0,1-1.32,0V42.48a0.66,0.66,0,0,1,1.32,0V56.89Z" transform="translate(-5.85 -9.17)" fill="#0b3039"/><path d="M432.24,57.55a7.89,7.89,0,0,1-5.58-13.46,7.89,7.89,0,0,1,11.15,11.15A7.6,7.6,0,0,1,432.24,57.55Zm0-14.46A6.57,6.57,0,0,0,427.6,54.3,6.56,6.56,0,1,0,436.88,45,6.31,6.31,0,0,0,432.24,43.08Z" transform="translate(-5.85 -9.17)" fill="#0b3039"/><path d="M458.05,57.32h0L448,44.33V56.89a0.66,0.66,0,0,1-1.32,0V42.4a0.66,0.66,0,0,1,1.18-.41L457.9,55V42.4a0.66,0.66,0,0,1,.65-0.66,0.64,0.64,0,0,1,.47.2,0.63,0.63,0,0,1,.19.46V56.93a0.22,0.22,0,0,1,0,.07,0.17,0.17,0,0,1,0,.05l0,0.07,0,0.05a0.13,0.13,0,0,1,0,.05l0,0.06,0,0.05,0,0,0,0,0,0,0,0-0.07,0,0,0-0.08,0h-0.34l-0.09,0,0,0-0.08,0,0,0,0,0Z" transform="translate(-5.85 -9.17)" fill="#0b3039"/></svg>