<svg xmlns="http://www.w3.org/2000/svg" viewBox="0 0 300 200"><title>strategy-icon</title><circle cx="84.03" cy="73.13" r="62.32" fill="none" stroke="#231f20" stroke-miterlimit="10" stroke-width="2"/><circle cx="123.82" cy="93.81" r="12.02" fill="none" stroke="#231f20" stroke-miterlimit="10" stroke-width="2"/><circle cx="53.89" cy="62.06" r="7.96" transform="translate(-18.38 101.2) rotate(-77.47)" fill="none" stroke="#231f20" stroke-miterlimit="10" stroke-width="2"/><circle cx="53.89" cy="62.06" r="51.18" fill="none" stroke="#231f20" stroke-miterlimit="10" stroke-width="2"/><path d="M144.5,86.22l12.06,26.72a3.55,3.55,0,0,1-3.23,5H135.84" fill="none" stroke="#231f20" stroke-miterlimit="10" stroke-width="2"/><path d="M136.51,117.95s3.73,4.72,4.52,7.86-4.52,3.93-4.52,3.93h0a3.24,3.24,0,0,1,3.74,3.07,5.91,5.91,0,0,1-1.09,4,41,41,0,0,1-5,4.39,2.75,2.75,0,0,0-.23,4.15h0a11.26,11.26,0,0,1,2.92,11.58l-0.11.32c-2,5.5-2.66,8.8-16.8,11.79A41.44,41.44,0,0,0,89.13,195" fill="none" stroke="#231f20" stroke-miterlimit="10" stroke-width="2"/><line x1="53.89" y1="62.06" x2="304.29" y2="62.06" fill="none" stroke="#231f20" stroke-miterlimit="10" stroke-width="2"/></svg>