<svg xmlns="http://www.w3.org/2000/svg" viewBox="0 0 164.47 133.09"><title>terminal</title><circle cx="82.17" cy="50.25" r="34.43" fill="none" stroke="#fff" stroke-miterlimit="10" stroke-width="0.5"/><circle cx="82.17" cy="50.25" r="36.02" fill="none" stroke="#fff" stroke-miterlimit="10" stroke-width="0.5"/><line x1="119.88" y1="95.36" x2="134.26" y2="50.25" fill="none" stroke="#fff" stroke-miterlimit="10" stroke-width="0.5"/><line x1="134.26" y1="50.36" x2="119.88" y2="5.25" fill="none" stroke="#fff" stroke-miterlimit="10" stroke-width="0.5"/><line x1="44.26" y1="95.36" x2="29.88" y2="50.25" fill="none" stroke="#fff" stroke-miterlimit="10" stroke-width="0.5"/><line x1="29.88" y1="50.36" x2="44.26" y2="5.25" fill="none" stroke="#fff" stroke-miterlimit="10" stroke-width="0.5"/><line x1="26.92" y1="50.25" x2="37.07" y2="0.25" fill="none" stroke="#fff" stroke-miterlimit="10" stroke-width="0.5"/><line x1="39.21" y1="97.25" x2="26.92" y2="49.74" fill="none" stroke="#fff" stroke-miterlimit="10" stroke-width="0.5"/><line x1="137.07" y1="50.25" x2="126.92" y2="0.25" fill="none" stroke="#fff" stroke-miterlimit="10" stroke-width="0.5"/><line x1="124.88" y1="97.25" x2="137.07" y2="49.74" fill="none" stroke="#fff" stroke-miterlimit="10" stroke-width="0.5"/><line x1="39.21" y1="97.25" x2="124.88" y2="97.25" fill="none" stroke="#fff" stroke-miterlimit="10" stroke-width="0.5"/><line x1="44.26" y1="95.36" x2="119.88" y2="95.36" fill="none" stroke="#fff" stroke-miterlimit="10" stroke-width="0.5"/><line x1="44.26" y1="5.36" x2="119.88" y2="5.36" fill="none" stroke="#fff" stroke-miterlimit="10" stroke-width="0.5"/><line x1="37.07" y1="0.25" x2="126.92" y2="0.25" fill="none" stroke="#fff" stroke-miterlimit="10" stroke-width="0.5"/><path d="M119.45,108.49v8.31s-24.17,10.19-55.33,0v-8.31" transform="translate(-9.79 -11.24)" fill="none" stroke="#fff" stroke-miterlimit="10" stroke-width="0.5"/><polygon points="50.39 90.32 48.16 88.88 47.05 86.46 47.43 83.83 49.17 81.82 51.72 81.07 54.27 81.82 56.01 83.83 56.39 86.46 55.29 88.88 53.05 90.32 50.39 90.32" fill="none" stroke="#fff" stroke-miterlimit="10" stroke-width="0.5"/><line x1="51.72" y1="85.79" x2="51.72" y2="82.64" fill="none" stroke="#fff" stroke-miterlimit="10" stroke-width="0.5"/><polyline points="121.67 126.24 0.59 126.24 28.77 97.25" fill="none" stroke="#fff" stroke-miterlimit="10" stroke-width="0.5"/><polyline points="41.92 126.24 163.88 126.24 135.7 97.25" fill="none" stroke="#fff" stroke-miterlimit="10" stroke-width="0.5"/><line x1="0.59" y1="132.84" x2="163.88" y2="132.84" fill="none" stroke="#fff" stroke-miterlimit="10" stroke-width="0.5"/></svg>