<svg xmlns="http://www.w3.org/2000/svg" viewBox="0 0 50 50"><title>thumbprint</title><path d="M25.52,3.87a21.27,21.27,0,0,0-12.78,4,0.53,0.53,0,0,0,.62.86A20.2,20.2,0,0,1,29.81,5.47a0.53,0.53,0,0,0,.28-1h0A21.26,21.26,0,0,0,25.52,3.87ZM33,5.39a0.53,0.53,0,0,0-.2,1,20.2,20.2,0,0,1,12.48,20.9,0.53,0.53,0,1,0,1.06.13v0a21.27,21.27,0,0,0-13.13-22A0.53,0.53,0,0,0,33,5.39ZM25,6.94c-0.41,0-.82,0-1.23.06a0.53,0.53,0,1,0,0,1.06h0a17.13,17.13,0,0,1,9,1.73,0.53,0.53,0,1,0,.48-1h0A18.2,18.2,0,0,0,25,6.94Zm-4.37.6-0.14,0A18.2,18.2,0,0,0,7,25.14a40,40,0,0,1,0,5.27A4.84,4.84,0,0,1,5.69,33a0.53,0.53,0,0,0,.79.72A5.9,5.9,0,0,0,8,30.54s0,0,0,0A40,40,0,0,0,8,25.14,17.13,17.13,0,0,1,20.72,8.59a0.53,0.53,0,0,0-.13-1h0ZM10.48,9.94a0.53,0.53,0,0,0-.37.16,21.27,21.27,0,0,0-5.9,18.76,0.53,0.53,0,1,0,1.05-.17v0a20.2,20.2,0,0,1,5.61-17.82A0.53,0.53,0,0,0,10.48,9.94ZM25,10h0c-0.41,0-.81,0-1.21.06a15.13,15.13,0,0,0-11.77,7.5,0.53,0.53,0,0,0,.9.57l0,0A14.06,14.06,0,0,1,39.2,24.44a0.53,0.53,0,0,0,1.06,0h0A15.12,15.12,0,0,0,25,10Zm10.67,0.45a0.53,0.53,0,0,0-.29,1,17.13,17.13,0,0,1,6,8.48,0.53,0.53,0,0,0,1-.27l0-.05a18.2,18.2,0,0,0-6.42-9A0.53,0.53,0,0,0,35.72,10.46ZM25.16,13.08A12.05,12.05,0,0,0,13.35,27.54a0.53,0.53,0,0,0,1-.2h0A11,11,0,0,1,25.16,14.15a0.53,0.53,0,0,0,0-1.06h0Zm3.49,0.54H28.6a0.53,0.53,0,0,0-.11,1,11,11,0,0,1,7.66,10.47h0a66.16,66.16,0,0,1-.24,8.37,0.53,0.53,0,0,0,1.06.12,66.86,66.86,0,0,0,.24-8.5,12.06,12.06,0,0,0-8.4-11.48Zm-4,2.55a9,9,0,0,0-3.4.89,0.53,0.53,0,0,0,.46,1h0a7.92,7.92,0,0,1,7.9.57,0.53,0.53,0,0,0,.61-0.87h0A9,9,0,0,0,24.64,16.17Zm-5.47,2.46a0.53,0.53,0,0,0-.37.16,9,9,0,0,0-2.63,6.35v3.52a16.39,16.39,0,0,1-5,11.72,0.53,0.53,0,1,0,.7.8l0,0a17.46,17.46,0,0,0,5.29-12.48V25.14a7.92,7.92,0,0,1,2.32-5.6A0.53,0.53,0,0,0,19.17,18.62Zm6,0.61a0.53,0.53,0,0,0-.2,0A5.83,5.83,0,0,0,21,21a5.89,5.89,0,0,0-1.72,4.16l0,2.32a0.53,0.53,0,0,0,1.06,0h0l0-2.32a4.82,4.82,0,1,1,9.64,0v1.54A40.54,40.54,0,0,1,29.13,35a0.53,0.53,0,1,0,1,.23h0a41.62,41.62,0,0,0,.89-8.56V25.15a5.89,5.89,0,0,0-5.71-5.87,0.53,0.53,0,0,0-.2,0h0Zm7,0.69a0.53,0.53,0,0,0-.44.83A7.91,7.91,0,0,1,33,25.84a0.53,0.53,0,0,0,1.06.1,9,9,0,0,0-1.46-5.76A0.53,0.53,0,0,0,32.19,19.92ZM11,20.82a0.53,0.53,0,0,0-.49.4,15.14,15.14,0,0,0-.49,4.69c0.05,1.68,0,2.28,0,4.63h0a5.45,5.45,0,0,1-2.79,4.87,0.53,0.53,0,0,0,.52.93,6.52,6.52,0,0,0,3.33-5.83c0-2.31.08-2.92,0-4.65h0a14,14,0,0,1,.46-4.36A0.53,0.53,0,0,0,11,20.82ZM25.16,22.3a2.84,2.84,0,0,0-2.84,2.84l0,2.91a31,31,0,0,1-1.56,8.43,0.53,0.53,0,0,0,1,.39l0-.05a32,32,0,0,0,1.62-8.72s0,0,0,0l0-2.93a1.77,1.77,0,1,1,3.54,0,0.53,0.53,0,0,0,1.06,0s0,0,0,0a2.84,2.84,0,0,0-2.84-2.84h0Zm17.49,0h0a0.53,0.53,0,0,0-.51.56v0.05a17.11,17.11,0,0,1,.14,2v3.33A35.56,35.56,0,0,1,41,37.79a0.53,0.53,0,0,0,1,.31v0a36.63,36.63,0,0,0,1.35-9.86V24.88s0,0,0,0a18.3,18.3,0,0,0-.15-2.08A0.53,0.53,0,0,0,42.65,22.31Zm-2.92,4.62a0.53,0.53,0,0,0-.52.55h0A41.72,41.72,0,0,1,37,41.64,0.53,0.53,0,0,0,38,42h0a42.78,42.78,0,0,0,2.27-14.52,0.53,0.53,0,0,0-.53-0.53h0Zm-12.44.73a0.53,0.53,0,0,0-.51.5,37.92,37.92,0,0,1-5.65,17.13,0.53,0.53,0,0,0,.89.58h0a39,39,0,0,0,5.8-17.6,0.53,0.53,0,0,0-.48-0.58H27.28Zm6.32,0.8a0.53,0.53,0,0,0-.53.53,41,41,0,0,1-3.65,16.12,0.53,0.53,0,0,0,.95.48l0,0A42,42,0,0,0,34.13,29a0.53,0.53,0,0,0-.51-0.55h0ZM13.59,30a0.53,0.53,0,0,0-.51.5,11,11,0,0,1-4,7.75,0.53,0.53,0,1,0,.64.85l0,0a12,12,0,0,0,4.37-8.5A0.53,0.53,0,0,0,13.65,30H13.59Zm5.84,0h0a0.53,0.53,0,0,0-.49.45,26.74,26.74,0,0,1-5.11,12,0.53,0.53,0,0,0,.83.67l0,0A27.8,27.8,0,0,0,20,30.62,0.53,0.53,0,0,0,19.54,30H19.42Zm16.53,6.13a0.53,0.53,0,0,0-.51.43,36.73,36.73,0,0,1-2.27,7.29,0.53,0.53,0,0,0,1,.46l0,0a37.79,37.79,0,0,0,2.33-7.51,0.53,0.53,0,0,0-.41-0.63H35.95Zm-7.07,1.53a0.53,0.53,0,0,0-.5.39,40.56,40.56,0,0,1-3.08,7.59,0.53,0.53,0,0,0,.94.5h0a41.61,41.61,0,0,0,3.16-7.79A0.53,0.53,0,0,0,29,37.68ZM20,39.21a0.53,0.53,0,0,0-.44.32A31,31,0,0,1,17,44.08a0.53,0.53,0,1,0,.86.63l0,0A32,32,0,0,0,20.5,40,0.53,0.53,0,0,0,20,39.21H20Z" fill="#f1f2f2"/></svg>