<svg xmlns="http://www.w3.org/2000/svg" viewBox="0 0 82.72 81.81"><title>boulder</title><path d="M28.26,85.95L12.43,72.66a11.09,11.09,0,0,1-3.79-6.57L5,45.73a11.09,11.09,0,0,1,1.32-7.47L16.7,20.35a11.09,11.09,0,0,1,5.81-4.88L41.94,8.4a11.09,11.09,0,0,1,7.59,0L69,15.47a11.09,11.09,0,0,1,5.81,4.88L85.1,38.25a11.09,11.09,0,0,1,1.32,7.47L82.83,66.09A11.09,11.09,0,0,1,79,72.66L63.2,85.95a11.09,11.09,0,0,1-7.13,2.6H35.39A11.09,11.09,0,0,1,28.26,85.95Z" transform="translate(-4.37 -7.23)" fill="none" stroke="#0b3039" stroke-miterlimit="10"/></svg>