<svg xmlns="http://www.w3.org/2000/svg" viewBox="0 0 77.81 83.81"><title>stick-figure</title><circle cx="52.24" cy="16.39" r="15.89" fill="none" stroke="#0b3039" stroke-miterlimit="10"/><circle cx="30.86" cy="42.26" r="24.2" fill="none" stroke="#0b3039" stroke-miterlimit="10"/><path d="M17.34,61.23l6,16.86a1.06,1.06,0,0,1-.53,1.3L7.68,86.94a1.06,1.06,0,0,0,.48,2h5.47" transform="translate(-6.59 -5.64)" fill="none" stroke="#0b3039" stroke-miterlimit="10"/><path d="M52.57,59.76L58.51,76.6A1.09,1.09,0,0,1,58,77.94L43,85.41a1.09,1.09,0,0,0,.49,2.07h5.34" transform="translate(-6.59 -5.64)" fill="none" stroke="#0b3039" stroke-miterlimit="10"/><line x1="30.72" y1="43.77" x2="77.69" y2="32.18" fill="#fff" stroke="#0b3039" stroke-miterlimit="10"/><line x1="55.05" y1="44.07" x2="77.69" y2="38.48" fill="#fff" stroke="#0b3039" stroke-miterlimit="10"/><line x1="73.42" y1="21.04" x2="49.31" y2="15.09" fill="#fff" stroke="#0b3039" stroke-miterlimit="10"/></svg>